# xmcd
#
# Track frame offsets: 
#        183
#        9135
#        20778
#        33223
#        46808
#        59908
#        71760
#        84853
#        97155
#        108880
#        118300
#        128928
#        141185
#        151035
#        160420
#        172388
#        183670
#        194983
#        205485
#        219150
#        231143
#        241045
#        251508
#        263598
#        276778
#        288925
#
# Disc length: 4002 seconds
#
# Revision: 2
# Processed by: cddbd v1.5.2PL0 Copyright (c) Steve Scherf et al.
# Submitted via: ExactAudioCopyFreeDBPlugin 1.0
#
DISCID=800fa01a
DTITLE=King Curtis - Blow Man, Blow!:  The Capitol Years, 1962-1965 [B
DTITLE=ear Family box set]
DYEAR=1992
DGENRE=Rhythm and Blues
TTITLE0=Theme from "Lillies Of The Field (Amen)", Part 2
TTITLE1=Theme from "Lillies Of The Field (Amen)", Part 1
TTITLE2=More Soul
TTITLE3=Soul Serenade
TTITLE4=Honky Tonk
TTITLE5=Watermelon Man
TTITLE6=Memphis
TTITLE7=Soul Twist
TTITLE8=Night Train
TTITLE9=Tequila
TTITLE10=Wiggle Wobble
TTITLE11=One Mint Julep
TTITLE12=Can't Sit Down
TTITLE13=The Swingin' Shepherd Blues
TTITLE14=My Last Date
TTITLE15=Hide Away
TTITLE16=Harlem Nocturne
TTITLE17=Java
TTITLE18=Stranger on the Shore
TTITLE19=Summer Dream
TTITLE20=Melancholy Serenade
TTITLE21=Tanya
TTITLE22=Hung Over
TTITLE23=Soul Twine (Chuck) (stereo)
TTITLE24=Hung Over
TTITLE25=Soul Twine (Chuck) (mono)
EXTD=
EXTT0=
EXTT1=
EXTT2=
EXTT3=
EXTT4=
EXTT5=
EXTT6=
EXTT7=
EXTT8=
EXTT9=
EXTT10=
EXTT11=
EXTT12=
EXTT13=
EXTT14=
EXTT15=
EXTT16=
EXTT17=
EXTT18=
EXTT19=
EXTT20=
EXTT21=
EXTT22=
EXTT23=
EXTT24=
EXTT25=
PLAYORDER=
